# xmcd
#
# Track frame offsets: 
#        150
#        14902
#        17017
#        33304
#        58402
#        79541
#        107699
#        110600
#        128460
#        150242
#        171237
#        189947
#        207108
#        226075
#        228734
#        250393
#        270761
#
# Disc length: 3873 seconds
#
# Revision: 1
# Processed by: cddbd v1.5.2PL0 Copyright (c) Steve Scherf et al.
# Submitted via: ExactAudioCopy v0.99pb4
#
DISCID=d20f1f11
DTITLE=Eliza Gilkyson - Your Town Tonight
DYEAR=2007
DGENRE=Folk
TTITLE0=Beauty Way
TTITLE1=Green Fields Intro
TTITLE2=Green Fields
TTITLE3=Dark Side of Town
TTITLE4=Tender Mercies
TTITLE5=Jokerman
TTITLE6=Rose of Sharon Intro
TTITLE7=Rose of Sharon
TTITLE8=Tennessee Road
TTITLE9=Angel and Delilah
TTITLE10=Hard Times in Babylon
TTITLE11=Jedidiah 1777
TTITLE12=Lights of Santa Fe
TTITLE13=Easy Rider Intro
TTITLE14=Easy Rider
TTITLE15=Requiem
TTITLE16=Bare Necessities
EXTD=
EXTT0=
EXTT1=
EXTT2=
EXTT3=
EXTT4=
EXTT5=
EXTT6=
EXTT7=
EXTT8=
EXTT9=
EXTT10=
EXTT11=
EXTT12=
EXTT13=
EXTT14=
EXTT15=
EXTT16=
PLAYORDER=
